<?xml version="1.0" standalone="no"?>
<!DOCTYPE svg PUBLIC "-//W3C//DTD SVG 20010904//EN"
 "http://www.w3.org/TR/2001/REC-SVG-20010904/DTD/svg10.dtd">
<svg version="1.0" xmlns="http://www.w3.org/2000/svg"
 width="512.000000pt" height="512.000000pt" viewBox="0 0 512.000000 512.000000"
 preserveAspectRatio="xMidYMid meet">

<g transform="translate(0.000000,512.000000) scale(0.100000,-0.100000)"
fill="#000000" stroke="none">
<path d="M3729 4557 c-109 -31 -194 -109 -315 -288 -362 -534 -638 -1283 -713
-1934 -20 -171 -24 -327 -11 -390 29 -143 107 -257 304 -445 77 -74 197 -191
266 -260 138 -137 172 -190 231 -356 17 -49 42 -108 56 -131 79 -136 243 -198
523 -197 164 0 236 14 358 70 245 112 436 356 553 704 64 193 82 318 83 575 0
125 -5 261 -12 315 -63 467 -209 928 -446 1415 -124 254 -195 380 -334 590
-130 196 -212 283 -297 315 -72 27 -182 35 -246 17z m218 -135 c55 -28 116
-99 228 -267 351 -525 640 -1233 734 -1800 79 -477 40 -857 -123 -1185 -66
-132 -111 -196 -205 -290 -95 -94 -174 -142 -301 -182 -138 -43 -426 -26 -539
32 -59 29 -96 83 -137 194 -20 56 -55 137 -77 181 -44 85 -111 157 -453 485
-138 132 -203 212 -247 307 -20 43 -22 63 -21 193 5 476 176 1113 449 1662 97
195 173 327 264 458 103 150 160 205 241 231 42 14 142 3 187 -19z"/>
<path d="M4532 1828 c-8 -8 -12 -48 -12 -122 0 -188 -55 -355 -165 -501 -56
-74 -61 -89 -41 -120 24 -36 65 -33 103 8 76 79 157 234 195 372 26 91 35 308
16 345 -15 28 -74 40 -96 18z"/>
<path d="M850 4499 c-88 -13 -247 -69 -315 -110 -267 -161 -428 -459 -476
-879 -59 -521 173 -1211 641 -1910 281 -420 700 -889 871 -976 110 -55 237
-52 352 8 78 42 127 99 187 217 263 526 429 1388 391 2034 -17 290 -42 445
-88 537 -70 143 -204 253 -597 491 -187 113 -265 187 -357 337 -132 214 -195
253 -414 258 -71 1 -159 -2 -195 -7z m350 -133 c56 -29 77 -54 153 -176 120
-194 196 -260 552 -475 228 -139 348 -242 400 -346 50 -98 79 -348 79 -679 -1
-470 -74 -928 -220 -1383 -75 -233 -180 -466 -237 -525 -78 -81 -204 -100
-306 -48 -67 34 -329 293 -472 466 -637 767 -1005 1601 -976 2205 11 211 50
380 126 540 120 250 286 380 554 431 103 19 301 13 347 -10z"/>
<path d="M436 3308 c-21 -30 -21 -121 -1 -138 24 -20 67 -15 87 10 25 31 25
111 0 133 -26 24 -68 21 -86 -5z"/>
<path d="M445 3046 c-26 -19 -23 -69 9 -192 45 -167 167 -386 224 -401 13 -3
34 -1 48 6 40 18 32 59 -29 148 -65 96 -112 206 -138 326 -11 51 -27 100 -36
109 -19 22 -52 23 -78 4z"/>
</g>
</svg>
