<?xml version="1.0" encoding="utf-8"?>
<!-- Svg Vector Icons : http://www.onlinewebfonts.com/icon -->
<!DOCTYPE svg PUBLIC "-//W3C//DTD SVG 1.1//EN" "http://www.w3.org/Graphics/SVG/1.1/DTD/svg11.dtd">
<svg version="1.1" xmlns="http://www.w3.org/2000/svg" xmlns:xlink="http://www.w3.org/1999/xlink" x="0px" y="0px" viewBox="0 0 1000 1000" enable-background="new 0 0 1000 1000" xml:space="preserve">
<metadata> Svg Vector Icons : http://www.onlinewebfonts.com/icon </metadata>
<g><path d="M985,495.1c-20.5-198.5-110.5-258.2-209.3-268.9c-5.9-0.6-12.2-1-18.9-1c-104.4,0-296,77.5-478.9,173.1C83.3,500,10.9,606.6,10.9,606.6S6,731.8,18.7,748.4c12.7,16.6,60.6,26.4,60.6,26.4s139.9-113.4,366.5-113.4c23.3,0,47.5,1.2,72.6,3.8c247.4,26.1,304.5,79.5,362.3,79.5c5,0,10.1-0.4,15.2-1.3C960.5,732.7,1005.5,693.6,985,495.1z M774,241.7c41.9,4.6,76.1,18,104,40.4c-6.1,1.1-30.9,8.8-57.3,62.4c-30.3,61.6-12.8-70.4-64.5-87c-29.7-9.6-138.4,16.1-203.6,33.2c86.2-32.1,157.1-49.8,204.2-49.8C762.9,240.8,768.7,241.1,774,241.7z M285.2,412.2c76.7-40.1,149.4-74.1,215-101c-1.7,4.6-4.8,11.9-10.9,23.6c-12.7,24.4-53.8,20.5-53.8,69.4c0,48.9,92.9,52.2,117.4,87.4c24.4,35.2,6.8,40.8-66.5,8.5c-73.3-32.3-112.5-21.5-88-123.2c0,0-15.6-2.9-54.8,66.5c-33.7,59.8-84.4,8.2-133.2,11.8C232.8,441,257.7,426.5,285.2,412.2z M351.3,526.4c-26.4-6.8-46,9.8-77.3,20.5C242.8,557.7,232,542,232,542s-13.7,6.8,16.6-22.5c30.3-29.3,92.9-14.7,107.6-10.4C370.9,513.5,377.8,533.2,351.3,526.4z M958.2,683.1c-12.3,26.3-31,39.3-64.8,45c-4.2,0.7-8.4,1-12.7,1c-18.7,0-38.2-6.7-67.9-16.8c-53.6-18.3-134.5-45.9-292.7-62.6c-24.7-2.6-49.7-3.9-74.2-3.9c-205.7,0-340.2,90-370.2,112.2c-1.8-0.4-3.5-0.9-5.3-1.4l-5-81.3c-1-15.8,7.7-30.5,22-37.1c96.5-44.8,471.1-198.1,791.1-45.3c0,0,35.1,31.4,94-60.9C977.4,602.4,972.7,652,958.2,683.1z"/><path d="M344.4,573.3c0,0,2.9,7.8-23.5,11.7s-31.3,25.4-8.8,27.4C334.6,614.4,364.9,595.8,344.4,573.3z"/><path d="M428.5,563.6c0,0-40.1-11.7-36.2,17.6c3.9,29.3,59.7,5,109.5,7.9c49.9,2.9,111.5,8.7,126.2,31.2c14.7,22.5,66.5,5,7.8-27.3c-58.7-32.3-140.8-21.6-156.5-19.6S428.5,563.6,428.5,563.6z"/><path d="M792.3,612.6c0,0,44,46.8,46,70.3c2,23.5,36.2,29.3,28.4-9.8C858.8,634,784.5,575.6,792.3,612.6z"/></g>
</svg>